<?xml version="1.0" standalone="no"?>
<!DOCTYPE svg PUBLIC "-//W3C//DTD SVG 20010904//EN"
 "http://www.w3.org/TR/2001/REC-SVG-20010904/DTD/svg10.dtd">
<svg version="1.0" xmlns="http://www.w3.org/2000/svg"
 width="700.000000pt" height="700.000000pt" viewBox="0 0 700.000000 700.000000"
 preserveAspectRatio="xMidYMid meet">
<metadata>
Created by potrace 1.14, written by Peter Selinger 2001-2017
</metadata>
<g transform="translate(0.000000,700.000000) scale(0.100000,-0.100000)"
fill="#000000" stroke="none">
<path d="M6680 5995 c-7 -8 -19 -15 -26 -15 -8 0 -14 -3 -14 -8 0 -4 -16 -16
-35 -26 -19 -11 -35 -23 -35 -28 0 -4 -6 -8 -13 -8 -20 0 -87 -65 -87 -85 0
-28 29 -66 96 -127 35 -32 61 -58 59 -58 -3 0 14 -18 37 -39 74 -70 103 -65
173 32 24 34 49 67 55 74 5 7 10 15 10 18 0 4 6 12 13 19 9 10 13 48 12 137
l0 124 -116 3 c-94 2 -118 0 -129 -13z"/>
<path d="M6240 5693 c-14 -5 -308 -201 -320 -213 -3 -3 -13 -9 -22 -15 -15 -9
-249 -168 -378 -257 -30 -21 -103 -70 -162 -110 -59 -39 -110 -80 -114 -90 -3
-10 -9 -18 -13 -18 -11 0 -471 -461 -471 -472 0 -4 -4 -8 -9 -8 -11 0 -341
-330 -341 -341 0 -5 -4 -9 -8 -9 -11 0 -632 -620 -632 -631 0 -5 -4 -9 -8 -9
-11 0 -472 -460 -472 -471 0 -5 -4 -9 -9 -9 -11 0 -281 -270 -281 -281 0 -5
-4 -9 -9 -9 -4 0 -154 -146 -333 -325 -179 -179 -328 -325 -332 -325 -3 0
-279 272 -612 605 -342 342 -610 602 -616 599 -6 -4 -8 -2 -5 3 10 16 -310
332 -358 354 -51 24 -138 24 -188 1 -36 -16 -428 -396 -448 -434 -29 -53 -36
-45 809 -890 444 -443 811 -804 816 -800 5 3 6 1 3 -5 -7 -12 480 -504 534
-540 46 -30 124 -40 186 -23 45 12 148 113 1803 1768 1693 1693 1759 1761
1862 1901 59 80 115 157 125 170 10 13 25 34 33 46 8 13 57 80 108 149 50 69
92 128 92 131 0 3 9 15 20 27 11 12 32 40 47 62 15 23 33 44 40 49 18 12 36
75 28 105 -7 28 -260 288 -302 310 -23 13 -39 14 -63 5z"/>
</g>
</svg>
