<?xml version="1.0" encoding="UTF-8"?>
<svg id="a" data-name="图层 1" xmlns="http://www.w3.org/2000/svg" xmlns:xlink="http://www.w3.org/1999/xlink" viewBox="0 0 512 512">
  <defs>
    <style>
      .e {
        opacity: .7;
      }

      .f {
        fill: url(#d);
      }

      .g {
        fill: url(#b);
      }

      .h {
        fill: url(#c);
      }
    </style>
    <linearGradient id="b" data-name="未命名的渐变 299" x1="117.85" y1="257.15" x2="219.35" y2="358.65" gradientUnits="userSpaceOnUse">
      <stop offset="0" stop-color="#80b392"/>
      <stop offset="1" stop-color="#668e74"/>
    </linearGradient>
    <linearGradient id="c" data-name="未命名的渐变 302" x1="383.7" y1="166.36" x2="192.53" y2="357.53" gradientUnits="userSpaceOnUse">
      <stop offset=".01" stop-color="#80b392"/>
      <stop offset="1" stop-color="#668e74"/>
    </linearGradient>
    <linearGradient id="d" data-name="未命名的渐变 302" x1="405.1" y1="147.1" x2="390.42" y2="161.77" xlink:href="#c"/>
  </defs>
  <g class="e">
    <path class="g" d="M229.36,348.63l-15.74,15.71c-3.9,3.9-10.23,3.9-14.13,0l-91.66-91.51c-1.57-1.56-1.57-4.1,0-5.66l15.74-15.71c3.9-3.9,10.23-3.9,14.13,0l91.66,91.51c1.57,1.56,1.57,4.1,0,5.66Z"/>
  </g>
  <g class="e">
    <path class="h" d="M374.02,161.28l-41.26,28.07-151.38,151.38c-1.56,1.56-1.56,4.09,0,5.66l18.05,18.05c3.91,3.91,10.24,3.91,14.14,0l151.62-151.62,25.32-34.86c1.16-1.59,.98-3.79-.41-5.18l-11.01-11.01c-1.36-1.36-3.49-1.56-5.08-.48Z"/>
    <path class="f" d="M394.48,147s0,0,.21,.22l-8.2,5.58c-1.56,1.06-1.76,3.27-.43,4.6l8.75,8.75c1.3,1.3,3.46,1.13,4.55-.36l5.65-7.78v-11h-10.52Z"/>
  </g>
</svg>